<svg xmlns="http://www.w3.org/2000/svg" xmlns:xlink="http://www.w3.org/1999/xlink" width="1920" zoomAndPan="magnify" viewBox="0 0 1440 809.999993" height="1080" preserveAspectRatio="xMidYMid meet" version="1.0"><defs><clipPath id="be0f10cd1d"><path d="M 589.375 274.375 L 850.375 274.375 L 850.375 535.375 L 589.375 535.375 Z M 589.375 274.375 " clip-rule="nonzero"/></clipPath><clipPath id="19a35eef59"><path d="M 595.789062 280.789062 L 842 280.789062 L 842 527 L 595.789062 527 Z M 595.789062 280.789062 " clip-rule="nonzero"/></clipPath></defs><g clip-path="url(#be0f10cd1d)"><path fill="#040606" d="M 719.996094 535.621094 C 647.832031 535.621094 589.375 476.757812 589.375 404.996094 C 589.375 333.234375 647.832031 274.375 719.996094 274.375 C 792.160156 274.375 850.621094 332.832031 850.621094 404.996094 C 850.621094 477.160156 791.757812 535.621094 719.996094 535.621094 Z M 719.996094 282.4375 C 652.265625 282.4375 597.4375 337.265625 597.4375 404.996094 C 597.4375 472.726562 652.265625 527.554688 719.996094 527.554688 C 787.726562 527.554688 842.554688 472.726562 842.554688 404.996094 C 842.554688 337.265625 787.324219 282.4375 719.996094 282.4375 Z M 719.996094 282.4375 " fill-opacity="1" fill-rule="nonzero"/></g><g clip-path="url(#19a35eef59)"><path fill="#ffffff" d="M 722.988281 319.582031 C 717.042969 319.320312 711.230469 321.464844 706.859375 325.484375 C 702.464844 329.527344 699.886719 335.144531 699.667969 341.109375 C 699.449219 347.054688 701.613281 352.847656 705.699219 357.195312 C 709.765625 361.546875 715.402344 364.082031 721.347656 364.253906 C 727.316406 364.429688 733.085938 362.222656 737.410156 358.136719 C 741.738281 354.027344 744.230469 348.367188 744.363281 342.398438 C 744.515625 336.566406 742.371094 330.882812 738.351562 326.621094 C 734.375 322.359375 728.84375 319.847656 722.988281 319.648438 Z M 709.589844 374.332031 L 687.625 374.332031 L 687.648438 374.332031 C 686.03125 374.351562 684.457031 374.570312 682.90625 375.007812 C 681.027344 375.402344 679.605469 376.910156 679.320312 378.8125 C 678.796875 380.886719 679.84375 383.027344 681.769531 383.882812 C 684.152344 384.996094 686.6875 385.671875 689.285156 385.914062 C 696.128906 386.21875 698.882812 389.234375 697.855469 396.273438 C 695.929688 409.429688 693.351562 422.519531 691.121094 435.65625 C 689.636719 444.53125 688.367188 453.402344 686.925781 462.277344 C 684.980469 474.207031 696.105469 485.421875 704.933594 486.882812 C 710.179688 487.628906 715.46875 487.957031 720.757812 487.910156 C 732.078125 487.890625 742.898438 483.191406 750.65625 474.953125 C 752.054688 473.640625 753.125 472 753.738281 470.1875 C 754.023438 468.613281 753.671875 466.972656 752.6875 465.664062 C 751.550781 464.941406 750.132812 464.789062 748.84375 465.246094 C 746.808594 465.925781 745.015625 467.300781 743.050781 468.15625 C 740.753906 469.226562 738.328125 470.054688 735.859375 470.601562 C 733.871094 471.105469 731.75 470.691406 730.089844 469.488281 C 728.429688 468.285156 727.359375 466.40625 727.183594 464.351562 C 726.769531 462.078125 726.703125 459.71875 726.988281 457.425781 C 727.816406 451.699219 728.996094 446.039062 730.023438 440.398438 C 732.824219 424.945312 735.683594 409.496094 738.570312 394.023438 C 739.355469 389.78125 740.691406 385.628906 739.792969 381.171875 C 739.664062 379.203125 738.722656 377.367188 737.238281 376.078125 C 735.730469 374.789062 733.742188 374.15625 731.773438 374.332031 Z M 719.011719 280.789062 C 743.355469 280.8125 767.15625 288.070312 787.371094 301.617188 C 807.609375 315.167969 823.367188 334.421875 832.65625 356.933594 C 841.945312 379.445312 844.347656 404.207031 839.5625 428.09375 C 834.777344 451.960938 822.996094 473.878906 805.753906 491.082031 C 788.507812 508.257812 766.542969 519.953125 742.636719 524.648438 C 718.746094 529.347656 694.007812 526.859375 671.519531 517.480469 C 649.050781 508.128906 629.839844 492.304688 616.378906 472.023438 C 602.894531 451.742188 595.726562 427.917969 595.789062 403.550781 C 595.878906 370.941406 608.902344 339.710938 632.003906 316.675781 C 655.105469 293.664062 686.402344 280.746094 719.011719 280.789062 " fill-opacity="1" fill-rule="nonzero"/></g></svg>